<?xml version="1.0" encoding="UTF-8" standalone="no"?>
<svg width="24px" height="24px" viewBox="0 0 24 24" version="1.1" xmlns="http://www.w3.org/2000/svg" xmlns:xlink="http://www.w3.org/1999/xlink" xmlns:sketch="http://www.bohemiancoding.com/sketch/ns">
    <!-- Generator: Sketch 3.3.3 (12081) - http://www.bohemiancoding.com/sketch -->
    <title>Artboard</title>
    <desc>Created with Sketch.</desc>
    <defs></defs>
    <g id="Page-1" stroke="none" stroke-width="1" fill="none" fill-rule="evenodd" sketch:type="MSPage">
        <g id="Artboard" sketch:type="MSArtboardGroup" fill="#D5DDDF">
            <g id="cd-icon-link" sketch:type="MSLayerGroup" transform="translate(0.000000, 1.715000)">
                <g id="Page-1" sketch:type="MSShapeGroup">
                    <path d="M18.8558331,12.4277081 L18.8558331,16.7131248 C18.8558331,17.7755509 18.4786271,18.68397 17.7242152,19.4383819 C16.9698034,20.1927937 16.0613843,20.5699997 14.9989581,20.5699997 L3.85687494,20.5699997 C2.79444875,20.5699997 1.8860297,20.1927937 1.13161782,19.4383819 C0.377205941,18.68397 0,17.7755509 0,16.7131248 L0,5.57104158 C0,4.50861539 0.377205941,3.60019634 1.13161782,2.84578446 C1.8860297,2.09137259 2.79444875,1.71416664 3.85687494,1.71416664 L13.2847915,1.71416664 C13.4097827,1.71416664 13.5124542,1.75434242 13.5928058,1.83469398 C13.6731573,1.91504554 13.7133331,2.01771699 13.7133331,2.1427083 L13.7133331,2.99979162 C13.7133331,3.12478294 13.6731573,3.22745438 13.5928058,3.30780594 C13.5124542,3.3881575 13.4097827,3.42833328 13.2847915,3.42833328 L3.85687494,3.42833328 C3.26763016,3.42833328 2.76320091,3.63814014 2.3435872,4.05775385 C1.9239735,4.47736755 1.71416664,4.9817968 1.71416664,5.57104158 L1.71416664,16.7131248 C1.71416664,17.3023695 1.9239735,17.8067988 2.3435872,18.2264125 C2.76320091,18.6460262 3.26763016,18.8558331 3.85687494,18.8558331 L14.9989581,18.8558331 C15.5882029,18.8558331 16.0926322,18.6460262 16.5122458,18.2264125 C16.9318595,17.8067988 17.1416664,17.3023695 17.1416664,16.7131248 L17.1416664,12.4277081 C17.1416664,12.3027168 17.1818422,12.2000454 17.2621938,12.1196938 C17.3425453,12.0393423 17.4452168,11.9991665 17.5702081,11.9991665 L18.4272914,11.9991665 C18.5522827,11.9991665 18.6549542,12.0393423 18.7353057,12.1196938 C18.8156573,12.2000454 18.8558331,12.3027168 18.8558331,12.4277081 L18.8558331,12.4277081 L18.8558331,12.4277081 Z M23.998333,0.857083321 L23.998333,7.71374989 C23.998333,7.94587661 23.9135175,8.14675552 23.7438864,8.3163866 C23.5742552,8.48601767 23.3733763,8.57083321 23.1412497,8.57083321 C22.909123,8.57083321 22.7082441,8.48601767 22.5386129,8.3163866 L20.1816338,5.95940746 L11.4500975,14.6909438 C11.360818,14.7802233 11.2581465,14.8248631 11.1420832,14.8248631 C11.0260198,14.8248631 10.9233484,14.7802233 10.8340688,14.6909438 L9.30738918,13.1642641 C9.21810967,13.0749846 9.17346992,12.9723132 9.17346992,12.8562498 C9.17346992,12.7401864 9.21810967,12.637515 9.30738918,12.5482355 L18.0389255,3.81669916 L15.6819464,1.45972003 C15.5123153,1.29008896 15.4274998,1.08921005 15.4274998,0.857083321 C15.4274998,0.624956588 15.5123153,0.424077685 15.6819464,0.254446611 C15.8515775,0.0848155369 16.0524564,0 16.2845831,0 L23.1412497,0 C23.3733763,0 23.5742552,0.0848155369 23.7438864,0.254446611 C23.9135175,0.424077685 23.998333,0.624956588 23.998333,0.857083321 L23.998333,0.857083321 L23.998333,0.857083321 Z" id="Shape"></path>
                </g>
            </g>
        </g>
    </g>
</svg>