<?xml version="1.0" encoding="UTF-8" standalone="no"?>
<svg width="24px" height="24px" viewBox="0 0 24 24" version="1.1" xmlns="http://www.w3.org/2000/svg" xmlns:xlink="http://www.w3.org/1999/xlink" xmlns:sketch="http://www.bohemiancoding.com/sketch/ns">
    <!-- Generator: Sketch 3.3.3 (12081) - http://www.bohemiancoding.com/sketch -->
    <title>Artboard</title>
    <desc>Created with Sketch.</desc>
    <defs></defs>
    <g id="Page-1" stroke="none" stroke-width="1" fill="none" fill-rule="evenodd" sketch:type="MSPage">
        <g id="Artboard" sketch:type="MSArtboardGroup" fill="#D5DDDF">
            <g id="cd-icon-email" sketch:type="MSLayerGroup" transform="translate(0.000000, 2.570000)">
                <g id="Page-1" sketch:type="MSShapeGroup">
                    <path d="M22.2890916,16.7168187 L22.2890916,6.42954566 C22.0033341,6.75102295 21.6952517,7.04571046 21.3648444,7.31360819 C18.9716246,9.15317264 17.0695507,10.6623299 15.6586227,11.8410799 C15.2031965,12.2250667 14.8326046,12.5242192 14.5468471,12.7385373 C14.2610895,12.9528555 13.8748702,13.1694062 13.3881894,13.3881894 C12.9015085,13.6069725 12.4438498,13.7163641 12.0152135,13.7163641 L11.9884237,13.7163641 C11.5597873,13.7163641 11.1021287,13.6069725 10.6154478,13.3881894 C10.1287669,13.1694062 9.74254766,12.9528555 9.45679008,12.7385373 C9.1710325,12.5242192 8.80044063,12.2250667 8.34501447,11.8410799 C6.9340864,10.6623299 5.03201248,9.15317264 2.6387927,7.31360819 C2.30838549,7.04571046 2.00030309,6.75102295 1.71454551,6.42954566 L1.71454551,16.7168187 C1.71454551,16.8329078 1.75696266,16.9333694 1.84179693,17.0182037 C1.92663121,17.1030379 2.02709286,17.1454551 2.14318189,17.1454551 L21.8604553,17.1454551 C21.9765443,17.1454551 22.077006,17.1030379 22.1618402,17.0182037 C22.2466744,16.9333694 22.2890916,16.8329078 22.2890916,16.7168187 L22.2890916,16.7168187 L22.2890916,16.7168187 Z M22.2890916,2.6387927 L22.2890916,2.31061797 L22.2823942,2.13648444 L22.2422095,1.96904836 L22.1685376,1.84849438 L22.0479837,1.74803273 L21.8604553,1.71454551 L2.14318189,1.71454551 C2.02709286,1.71454551 1.92663121,1.75696266 1.84179693,1.84179693 C1.75696266,1.92663121 1.71454551,2.02709286 1.71454551,2.14318189 C1.71454551,3.64340921 2.37089496,4.9114585 3.68359387,5.94732974 C5.40706931,7.30467826 7.19751917,8.7200713 9.05494347,10.1935089 C9.10852302,10.2381585 9.26479671,10.3698749 9.52376451,10.588658 C9.78273232,10.8074412 9.98812059,10.9748772 10.1399293,11.0909663 C10.291738,11.2070553 10.4904288,11.3477016 10.7360018,11.5129052 C10.9815747,11.6781088 11.2070553,11.8008953 11.4124436,11.8812646 C11.6178318,11.9616339 11.8098252,12.0018186 11.9884237,12.0018186 L12.0152135,12.0018186 C12.1938119,12.0018186 12.3858053,11.9616339 12.5911936,11.8812646 C12.7965818,11.8008953 13.0220625,11.6781088 13.2676354,11.5129052 C13.5132083,11.3477016 13.7118992,11.2070553 13.8637078,11.0909663 C14.0155165,10.9748772 14.2209049,10.8074412 14.4798726,10.588658 C14.7388404,10.3698749 14.8951141,10.2381585 14.9486937,10.1935089 C16.806118,8.7200713 18.5965678,7.30467826 20.3200433,5.94732974 C20.8022592,5.56334298 21.2509879,5.04763984 21.6662294,4.40022031 C22.0814709,3.75280079 22.2890916,3.16565824 22.2890916,2.6387927 L22.2890916,2.6387927 L22.2890916,2.6387927 Z M24.0036371,2.14318189 L24.0036371,16.7168187 C24.0036371,17.3061937 23.7937839,17.8107345 23.3740775,18.2304409 C22.9543711,18.6501473 22.4498303,18.8600006 21.8604553,18.8600006 L2.14318189,18.8600006 C1.55380687,18.8600006 1.04926613,18.6501473 0.629559679,18.2304409 C0.209853227,17.8107345 0,17.3061937 0,16.7168187 L0,2.14318189 C0,1.55380687 0.209853227,1.04926613 0.629559679,0.629559679 C1.04926613,0.209853227 1.55380687,0 2.14318189,0 L21.8604553,0 C22.4498303,0 22.9543711,0.209853227 23.3740775,0.629559679 C23.7937839,1.04926613 24.0036371,1.55380687 24.0036371,2.14318189 L24.0036371,2.14318189 L24.0036371,2.14318189 Z" id="Shape"></path>
                </g>
            </g>
        </g>
    </g>
</svg>