<?xml version="1.0" encoding="UTF-8" standalone="no"?>
<svg width="24px" height="24px" viewBox="0 0 24 24" version="1.1" xmlns="http://www.w3.org/2000/svg" xmlns:xlink="http://www.w3.org/1999/xlink" xmlns:sketch="http://www.bohemiancoding.com/sketch/ns">
    <!-- Generator: Sketch 3.3.3 (12081) - http://www.bohemiancoding.com/sketch -->
    <title>Artboard</title>
    <desc>Created with Sketch.</desc>
    <defs></defs>
    <g id="Page-1" stroke="none" stroke-width="1" fill="none" fill-rule="evenodd" sketch:type="MSPage">
        <g id="Artboard" sketch:type="MSArtboardGroup" fill="#D5DDDF">
            <g id="cd-icon-phone" sketch:type="MSLayerGroup">
                <g id="Page-1" sketch:type="MSShapeGroup">
                    <path d="M24,18.9545455 C24,19.2613636 23.9431819,19.6619318 23.8295455,20.15625 C23.715909,20.6505682 23.5965909,21.0397727 23.4715909,21.3238636 C23.2329545,21.8920454 22.5397727,22.4943182 21.3920455,23.1306818 C20.3238636,23.7102273 19.2670454,24 18.2215909,24 C17.9147727,24 17.6164773,23.9801136 17.3267045,23.9403409 C17.0369318,23.9005682 16.7102273,23.8295455 16.3465909,23.7272727 C15.9829546,23.625 15.7130682,23.5426137 15.5369318,23.4801136 C15.3607955,23.4176136 15.0454546,23.3011364 14.5909091,23.1306818 C14.1363636,22.9602273 13.8579545,22.8579545 13.7556818,22.8238636 C12.6420455,22.4261364 11.6477273,21.9545455 10.7727273,21.4090909 C9.31818182,20.5113636 7.81534091,19.2869318 6.26420455,17.7357955 C4.71306818,16.1846591 3.48863637,14.6818182 2.59090909,13.2272727 C2.04545455,12.3522727 1.57386364,11.3579545 1.17613636,10.2443182 C1.14204545,10.1420455 1.03977273,9.86363637 0.869318182,9.40909091 C0.698863636,8.95454545 0.582386364,8.63920454 0.519886364,8.46306818 C0.457386363,8.28693182 0.375,8.01704545 0.272727273,7.65340909 C0.170454545,7.28977273 0.0994318181,6.96306818 0.0596590909,6.67329545 C0.0198863637,6.38352273 0,6.08522727 0,5.77840909 C0,4.73295455 0.289772727,3.67613637 0.869318182,2.60795455 C1.50568182,1.46022727 2.10795455,0.767045455 2.67613636,0.528409091 C2.96022728,0.403409091 3.34943182,0.28409091 3.84375,0.170454545 C4.33806818,0.0568181818 4.73863636,0 5.04545455,0 C5.20454545,0 5.32386363,0.0170454545 5.40340909,0.0511363636 C5.60795455,0.119318182 5.90909091,0.551136363 6.30681818,1.34659091 C6.43181818,1.5625 6.60227272,1.86931819 6.81818182,2.26704545 C7.03409091,2.66477272 7.23295454,3.02556818 7.41477273,3.34943182 C7.59659091,3.67329545 7.77272727,3.97727272 7.94318182,4.26136364 C7.97727273,4.30681819 8.07670454,4.44886364 8.24147727,4.6875 C8.40625001,4.92613636 8.52840909,5.1278409 8.60795455,5.29261364 C8.68750001,5.45738637 8.72727273,5.61931819 8.72727273,5.77840909 C8.72727273,6.00568181 8.56534091,6.28977273 8.24147727,6.63068182 C7.91761364,6.97159091 7.5653409,7.2840909 7.18465909,7.56818182 C6.80397728,7.85227273 6.45170455,8.15340909 6.12784091,8.47159091 C5.80397727,8.78977273 5.64204545,9.05113636 5.64204545,9.25568182 C5.64204545,9.35795455 5.67045455,9.48579545 5.72727273,9.63920455 C5.7840909,9.79261364 5.83238637,9.9090909 5.87215909,9.98863636 C5.91193181,10.0681818 5.99147727,10.2045455 6.11079545,10.3977273 C6.23011364,10.5909091 6.29545454,10.6988636 6.30681818,10.7215909 C7.17045455,12.2784091 8.15909091,13.6136364 9.27272727,14.7272727 C10.3863636,15.8409091 11.7215909,16.8295454 13.2784091,17.6931818 C13.3011364,17.7045455 13.4090909,17.7698864 13.6022727,17.8892045 C13.7954545,18.0085227 13.9318182,18.0880682 14.0113636,18.1278409 C14.0909091,18.1676136 14.2073864,18.2159091 14.3607955,18.2727273 C14.5142045,18.3295454 14.6420455,18.3579545 14.7443182,18.3579545 C14.9488636,18.3579545 15.2102273,18.1960227 15.5284091,17.8721591 C15.8465909,17.5482955 16.1477273,17.1960227 16.4318182,16.8153409 C16.7159091,16.4346591 17.0284091,16.0823864 17.3693182,15.7585227 C17.7102273,15.4346591 17.9943182,15.2727273 18.2215909,15.2727273 C18.3806818,15.2727273 18.5426136,15.3125 18.7073864,15.3920455 C18.8721591,15.4715909 19.0738636,15.59375 19.3125,15.7585227 C19.5511364,15.9232955 19.6931818,16.0227273 19.7386364,16.0568182 C20.0227273,16.2272727 20.3267045,16.4034091 20.6505682,16.5852273 C20.9744318,16.7670455 21.3352273,16.9659091 21.7329545,17.1818182 C22.1306818,17.3977273 22.4374999,17.5681819 22.6534091,17.6931818 C23.4488637,18.090909 23.8806818,18.3920455 23.9488636,18.5965909 C23.9829545,18.6761364 24,18.7954546 24,18.9545455 L24,18.9545455 L24,18.9545455 Z" id="Shape"></path>
                </g>
            </g>
        </g>
    </g>
</svg>