<?xml version="1.0" encoding="UTF-8" standalone="no"?>
<svg width="24px" height="24px" viewBox="0 0 24 24" version="1.1" xmlns="http://www.w3.org/2000/svg" xmlns:xlink="http://www.w3.org/1999/xlink" xmlns:sketch="http://www.bohemiancoding.com/sketch/ns">
    <!-- Generator: Sketch 3.3.3 (12081) - http://www.bohemiancoding.com/sketch -->
    <title>Artboard</title>
    <desc>Created with Sketch.</desc>
    <defs></defs>
    <g id="Page-1" stroke="none" stroke-width="1" fill="none" fill-rule="evenodd" sketch:type="MSPage">
        <g id="Artboard" sketch:type="MSArtboardGroup" fill="#D5DDDF">
            <g id="cd-icon-message" sketch:type="MSLayerGroup" transform="translate(0.000000, 3.000000)">
                <g id="Page-1" sketch:type="MSShapeGroup">
                    <path d="M11.945114,14.2050004 L13.5055117,12.6446026 L11.4608526,10.5999435 L9.90045482,12.1603413 L9.90045482,12.9136367 L11.1918185,12.9136367 L11.1918185,14.2050004 L11.945114,14.2050004 L11.945114,14.2050004 Z M17.8638641,4.51977285 C17.7203792,4.376288 17.5724105,4.38077191 17.4199579,4.53322456 L12.7118612,9.24132128 C12.5594085,9.39377393 12.5549246,9.54174269 12.6984094,9.68522755 C12.8418943,9.8287124 12.9898631,9.82422849 13.1423157,9.67177584 L17.8504124,4.96367912 C18.002865,4.81122647 18.007349,4.66325771 17.8638641,4.51977285 L17.8638641,4.51977285 L17.8638641,4.51977285 Z M18.9400005,12.5100856 L18.9400005,15.0659095 C18.9400005,16.1330781 18.5611108,17.0455521 17.8033315,17.8033315 C17.0455521,18.5611108 16.1330781,18.9400005 15.0659095,18.9400005 L3.87409102,18.9400005 C2.80692243,18.9400005 1.89444844,18.5611108 1.13666907,17.8033315 C0.378889689,17.0455521 0,16.1330781 0,15.0659095 L0,3.87409102 C0,2.80692243 0.378889689,1.89444844 1.13666907,1.13666907 C1.89444844,0.378889689 2.80692243,0 3.87409102,0 L15.0659095,0 C15.6308811,0 16.1554976,0.112097541 16.639759,0.336292623 C16.774276,0.399067247 16.8549863,0.502196983 16.8818897,0.645681836 C16.9087931,0.798134492 16.868438,0.92816764 16.7608243,1.03578128 L16.1016908,1.69491482 C15.9761416,1.82046406 15.8326567,1.85633528 15.6712362,1.80252846 C15.4649768,1.74872164 15.2632012,1.72181823 15.0659095,1.72181823 L3.87409102,1.72181823 C3.282216,1.72181823 2.77553511,1.93256161 2.35404836,2.35404836 C1.93256161,2.77553511 1.72181823,3.282216 1.72181823,3.87409102 L1.72181823,15.0659095 C1.72181823,15.6577845 1.93256161,16.1644655 2.35404836,16.5859522 C2.77553511,17.0074389 3.282216,17.2181823 3.87409102,17.2181823 L15.0659095,17.2181823 C15.6577845,17.2181823 16.1644655,17.0074389 16.5859522,16.5859522 C17.0074389,16.1644655 17.2181823,15.6577845 17.2181823,15.0659095 L17.2181823,13.3709947 C17.2181823,13.2544132 17.2585374,13.1557674 17.3392476,13.0750572 L18.2001568,12.2141481 C18.3346738,12.079631 18.4916104,12.0482437 18.6709664,12.1199861 C18.8503225,12.1917286 18.9400005,12.3217617 18.9400005,12.5100856 L18.9400005,12.5100856 L18.9400005,12.5100856 Z M17.6486369,2.58272735 L21.5227279,6.45681836 L12.4831822,15.4963641 L8.60909115,15.4963641 L8.60909115,11.6222731 L17.6486369,2.58272735 L17.6486369,2.58272735 Z M23.6211938,4.3583524 L22.383637,5.59590925 L18.509546,1.72181823 L19.7471028,0.484261377 C19.9982014,0.233162885 20.3031066,0.107613639 20.6618188,0.107613639 C21.0205309,0.107613639 21.3254362,0.233162885 21.5765347,0.484261377 L23.6211938,2.52892053 C23.8722924,2.78001902 23.9978416,3.08492432 23.9978416,3.44363646 C23.9978416,3.8023486 23.8722924,4.1072539 23.6211938,4.3583524 L23.6211938,4.3583524 L23.6211938,4.3583524 Z" id="Shape"></path>
                </g>
            </g>
        </g>
    </g>
</svg>