<?xml version="1.0" encoding="UTF-8" standalone="no"?>
<svg width="24px" height="24px" viewBox="0 0 24 24" version="1.1" xmlns="http://www.w3.org/2000/svg" xmlns:xlink="http://www.w3.org/1999/xlink" xmlns:sketch="http://www.bohemiancoding.com/sketch/ns">
    <!-- Generator: Sketch 3.3.3 (12081) - http://www.bohemiancoding.com/sketch -->
    <title>Artboard</title>
    <desc>Created with Sketch.</desc>
    <defs></defs>
    <g id="Page-1" stroke="none" stroke-width="1" fill="none" fill-rule="evenodd" sketch:type="MSPage">
        <g id="Artboard" sketch:type="MSArtboardGroup" fill="#D5DDDF">
            <g id="cd-icon-user" sketch:type="MSLayerGroup" transform="translate(1.000000, 0.000000)">
                <g id="Page-1" sketch:type="MSShapeGroup">
                    <path d="M22,19.953125 C22,21.203125 21.6197917,22.1901042 20.859375,22.9140625 C20.0989583,23.6380208 19.0885417,24 17.828125,24 L4.171875,24 C2.91145833,24 1.90104167,23.6380208 1.140625,22.9140625 C0.380208333,22.1901042 0,21.203125 0,19.953125 C0,19.4010417 0.0182291667,18.8619792 0.0546875,18.3359375 C0.0911458333,17.8098958 0.1640625,17.2421875 0.2734375,16.6328125 C0.3828125,16.0234375 0.520833333,15.4583333 0.6875,14.9375 C0.854166667,14.4166667 1.078125,13.9088542 1.359375,13.4140625 C1.640625,12.9192708 1.96354167,12.4973958 2.328125,12.1484375 C2.69270833,11.7994792 3.13802083,11.5208333 3.6640625,11.3125 C4.19010417,11.1041667 4.77083333,11 5.40625,11 C5.5,11 5.71875,11.1119792 6.0625,11.3359375 C6.40625,11.5598958 6.79427083,11.8098958 7.2265625,12.0859375 C7.65885417,12.3619792 8.22135417,12.6119792 8.9140625,12.8359375 C9.60677083,13.0598958 10.3020833,13.171875 11,13.171875 C11.6979167,13.171875 12.3932292,13.0598958 13.0859375,12.8359375 C13.7786458,12.6119792 14.3411458,12.3619792 14.7734375,12.0859375 C15.2057292,11.8098958 15.59375,11.5598958 15.9375,11.3359375 C16.28125,11.1119792 16.5,11 16.59375,11 C17.2291667,11 17.8098958,11.1041667 18.3359375,11.3125 C18.8619792,11.5208333 19.3072917,11.7994792 19.671875,12.1484375 C20.0364583,12.4973958 20.359375,12.9192708 20.640625,13.4140625 C20.921875,13.9088542 21.1458333,14.4166667 21.3125,14.9375 C21.4791667,15.4583333 21.6171875,16.0234375 21.7265625,16.6328125 C21.8359375,17.2421875 21.9088542,17.8098958 21.9453125,18.3359375 C21.9817708,18.8619792 22,19.4010417 22,19.953125 L22,19.953125 L22,19.953125 Z M17,6 C17,7.65625 16.4140625,9.0703125 15.2421875,10.2421875 C14.0703125,11.4140625 12.65625,12 11,12 C9.34375,12 7.9296875,11.4140625 6.7578125,10.2421875 C5.5859375,9.0703125 5,7.65625 5,6 C5,4.34375 5.5859375,2.9296875 6.7578125,1.7578125 C7.9296875,0.5859375 9.34375,0 11,0 C12.65625,0 14.0703125,0.5859375 15.2421875,1.7578125 C16.4140625,2.9296875 17,4.34375 17,6 L17,6 L17,6 Z" id="Shape"></path>
                </g>
            </g>
        </g>
    </g>
</svg>